<?xml version="1.0" standalone="no"?>
<!DOCTYPE svg PUBLIC "-//W3C//DTD SVG 20010904//EN"
 "http://www.w3.org/TR/2001/REC-SVG-20010904/DTD/svg10.dtd">
<svg version="1.0" xmlns="http://www.w3.org/2000/svg"
 width="700.000000pt" height="492.000000pt" viewBox="0 0 700.000000 492.000000"
 preserveAspectRatio="xMidYMid meet">

<g transform="translate(0.000000,492.000000) scale(0.100000,-0.100000)"
fill="#000000" stroke="none">
<path d="M2770 4070 c-13 -8 40 -173 340 -1075 348 -1045 355 -1065 369 -1033
13 32 3 64 -333 1076 -191 573 -351 1042 -354 1042 -4 0 -14 -5 -22 -10z"/>
<path d="M4207 4073 c-3 -7 -1051 -3153 -1062 -3188 -1 -5 10 -10 26 -10 19 0
29 5 29 15 0 8 237 725 526 1594 528 1584 532 1595 492 1596 -4 0 -9 -3 -11
-7z"/>
<path d="M2730 4055 c0 -17 712 -2150 721 -2159 5 -6 9 -7 9 -4 0 15 -713
2154 -721 2163 -5 5 -9 5 -9 0z"/>
<path d="M3737 2473 c-448 -1347 -538 -1626 -514 -1592 2 2 238 713 526 1579
288 866 526 1581 528 1588 3 6 1 12 -4 12 -5 0 -246 -714 -536 -1587z"/>
<path d="M2505 3979 c-143 -19 -341 -78 -507 -153 -32 -14 -58 -30 -58 -35 0
-17 552 -1676 561 -1685 5 -5 40 5 86 26 209 95 376 138 571 145 125 5 142 8
137 22 -3 9 -130 392 -283 851 l-279 835 -79 1 c-43 1 -110 -2 -149 -7z"/>
<path d="M4127 3547 c-81 -243 -147 -448 -147 -455 0 -8 21 -12 68 -12 37 0
108 -7 157 -15 240 -39 463 -134 850 -360 521 -306 759 -398 1081 -420 l100
-7 22 57 c12 31 22 61 22 66 0 5 -26 9 -57 9 -153 1 -356 44 -527 111 -106 42
-401 191 -425 214 -12 12 -11 22 9 74 12 34 24 61 25 61 2 0 36 -19 77 -42
307 -174 582 -268 839 -284 l107 -7 21 57 c11 31 21 60 21 65 0 4 -48 11 -107
14 -249 13 -460 81 -778 250 -148 79 -143 73 -115 146 12 34 24 61 26 61 1 0
31 -16 65 -36 105 -62 359 -180 454 -212 140 -47 277 -73 399 -75 l109 -2 18
50 c9 28 18 55 18 61 1 7 -41 13 -116 17 -179 10 -353 54 -548 139 -114 50
-355 180 -355 192 0 5 10 35 21 68 l22 58 61 -34 c125 -70 324 -165 416 -199
164 -60 349 -97 492 -97 l57 0 20 55 c12 31 21 59 21 64 0 4 -55 11 -122 14
-300 16 -516 100 -1023 397 -435 255 -650 346 -910 385 -55 8 -127 15 -160 15
l-60 0 -148 -443z m216 349 c-17 -22 -67 -30 -59 -10 2 6 -1 17 -7 23 -8 8 -5
11 10 11 12 0 25 4 28 10 4 6 13 5 25 -2 17 -11 17 -13 3 -32z m238 -35 c-23
-24 -56 -15 -57 14 -2 28 32 38 57 16 15 -12 15 -15 0 -30z m225 -77 c-8 -17
-13 -19 -32 -10 -28 13 -27 47 1 61 16 9 22 7 30 -10 7 -13 7 -27 1 -41z
m-376 6 c-24 -24 -57 -20 -57 5 0 29 37 45 57 25 13 -13 13 -17 0 -30z m230
-15 c0 -8 5 -15 12 -15 6 0 4 -8 -6 -19 -22 -24 -53 -16 -59 15 -3 18 -1 24 9
20 7 -3 16 -1 19 4 9 15 25 12 25 -5z m-381 -53 c-5 -2 -9 -9 -9 -16 0 -7 -12
-13 -28 -13 -36 0 -37 33 -1 51 20 10 26 9 36 -3 6 -9 7 -17 2 -19z m751 -17
c0 -3 -3 -13 -8 -22 -8 -14 -12 -14 -28 -2 -23 17 -31 61 -10 53 8 -3 17 0 22
7 5 9 10 6 15 -9 5 -12 9 -25 9 -27z m-510 -5 c4 0 3 -11 -3 -24 -8 -17 -15
-21 -23 -15 -6 5 -20 6 -30 3 -15 -6 -17 -4 -7 6 6 7 9 18 7 24 -2 6 6 16 18
21 17 7 24 7 26 -2 2 -7 7 -13 12 -13z m368 -38 c-4 -2 -8 -10 -8 -18 0 -8 -4
-14 -10 -14 -5 0 -10 5 -10 10 0 6 -6 10 -12 10 -7 0 -14 11 -14 24 -1 16 3
23 11 20 7 -3 16 0 20 6 5 8 11 4 19 -12 7 -12 8 -24 4 -26z m-518 -32 c4 0 3
-11 -3 -25 -7 -14 -18 -23 -25 -20 -8 3 -18 5 -23 5 -17 0 -9 32 14 50 18 15
23 16 25 4 2 -8 7 -14 12 -14z m375 7 c14 -29 -13 -60 -37 -43 -20 15 -31 59
-13 52 8 -3 17 -1 20 4 10 16 19 12 30 -13z m493 -34 c5 -13 6 -23 1 -23 -5 0
-9 -6 -9 -14 0 -11 -5 -12 -23 -3 -32 15 -33 62 -2 62 13 0 26 -9 33 -22z
m-632 -26 c11 -6 10 -11 -4 -25 -23 -24 -62 -17 -59 12 2 24 39 49 46 32 2 -6
10 -15 17 -19z m495 -36 c-23 -23 -59 -6 -53 25 5 30 33 35 53 10 14 -18 14
-21 0 -35z m-888 -15 c-21 -28 -63 -28 -60 -1 3 26 37 45 59 31 15 -9 15 -12
1 -30z m748 -26 c-9 -8 -17 -12 -19 -8 -2 4 -12 8 -21 8 -14 0 -17 6 -14 24 6
31 33 37 54 12 14 -18 14 -21 0 -36z m-508 -9 c-21 -25 -58 -16 -59 14 -2 29
32 39 58 17 15 -12 15 -15 1 -31z m368 -28 c-9 -11 -17 -17 -19 -12 -2 5 -12
9 -21 9 -14 0 -17 6 -14 24 6 30 32 38 54 17 15 -15 15 -18 0 -38z m625 -15
c-12 -20 -26 -24 -26 -8 0 6 -6 10 -13 10 -22 0 -15 44 8 50 26 8 46 -27 31
-52z m-754 -8 c8 0 6 -5 -4 -11 -10 -5 -18 -18 -19 -27 0 -10 -3 -12 -6 -4 -2
6 -12 12 -21 12 -11 0 -17 8 -17 25 0 17 6 25 18 25 9 0 17 6 18 13 0 6 4 2 9
-10 5 -13 15 -23 22 -23z m619 15 c14 -18 13 -22 -3 -37 -10 -10 -18 -13 -18
-8 0 6 -8 10 -18 10 -15 0 -18 6 -14 28 4 33 32 37 53 7z m-1011 -35 c-25 -25
-57 -23 -57 4 0 30 36 47 57 26 13 -13 13 -17 0 -30z m870 5 c0 -8 5 -15 12
-15 6 0 4 -8 -6 -19 -14 -16 -22 -18 -36 -9 -10 6 -17 22 -17 35 0 18 5 23 23
23 15 0 24 -6 24 -15z m-640 -20 c0 -8 4 -15 9 -15 5 0 4 -10 -2 -23 -9 -20
-14 -22 -34 -13 -14 7 -23 20 -23 34 0 13 4 21 9 17 5 -3 12 -1 16 5 9 15 25
12 25 -5z m506 -51 c-10 -20 -12 -20 -31 -6 -22 16 -29 65 -8 58 7 -3 15 0 19
5 12 20 31 -34 20 -57z m-887 -12 c-17 -27 -56 -23 -62 6 -3 16 0 22 14 22 10
0 21 5 24 10 4 6 12 5 21 -5 12 -11 12 -18 3 -33z m747 -24 c-12 -20 -26 -24
-26 -8 0 6 -6 10 -12 10 -7 0 -13 11 -13 25 0 16 5 23 12 21 7 -3 15 0 19 5 4
6 11 1 18 -13 9 -16 9 -28 2 -40z m-503 -1 c-7 -4 -13 -15 -13 -24 0 -12 -3
-13 -15 -3 -8 6 -18 9 -23 6 -5 -3 -9 5 -9 17 0 31 36 48 58 27 12 -12 13 -17
2 -23z m363 -39 c-12 -20 -26 -24 -26 -7 0 6 -6 9 -13 6 -10 -4 -14 4 -14 24
0 20 4 28 13 25 8 -3 16 0 20 5 4 6 11 1 18 -13 9 -16 9 -28 2 -40z m625 17
c14 -18 13 -22 -3 -37 -10 -10 -18 -13 -18 -8 0 6 -9 10 -20 10 -16 0 -19 4
-12 18 5 9 8 22 6 27 -7 19 32 11 47 -10z m-135 -57 c-12 -20 -26 -24 -26 -8
0 6 -6 10 -13 10 -22 0 -15 44 8 50 26 8 46 -27 31 -52z m-1002 19 c8 -6 7
-10 -1 -14 -7 -2 -13 -12 -13 -20 0 -10 -6 -13 -16 -9 -9 3 -20 6 -25 6 -17 0
-9 32 14 50 15 13 23 15 26 7 2 -7 9 -16 15 -20z m366 19 c0 -8 6 -17 13 -20
10 -5 10 -7 0 -12 -7 -3 -13 -12 -13 -19 0 -10 -5 -11 -24 -2 -27 13 -32 54
-7 60 28 8 31 7 31 -7z m490 -30 c0 -5 8 -15 18 -22 16 -13 16 -13 0 -14 -10
0 -18 -6 -18 -14 0 -11 -5 -12 -22 -3 -15 6 -23 19 -23 36 0 20 5 26 23 26 12
0 22 -4 22 -9z m-620 -46 c5 0 2 -8 -7 -18 -25 -25 -58 -17 -58 14 0 16 6 24
18 24 9 0 17 6 18 13 0 6 4 2 9 -10 5 -13 14 -23 20 -23z m491 -29 c-9 -9 -17
-13 -19 -9 -2 4 -12 8 -21 8 -14 0 -17 6 -14 24 6 32 33 38 54 13 15 -18 15
-21 0 -36z m-887 16 c19 -18 -5 -50 -38 -52 -41 -1 -23 50 22 64 2 1 9 -5 16
-12z m751 -20 c8 -17 7 -26 -7 -39 -10 -10 -18 -13 -18 -8 0 6 -10 10 -22 10
-16 0 -19 3 -11 11 6 6 9 17 6 24 -4 11 5 17 37 24 3 0 10 -9 15 -22z m-507
-17 c7 -12 8 -20 2 -20 -5 0 -10 -7 -10 -16 0 -11 -5 -14 -16 -10 -9 3 -21 6
-28 6 -7 0 -12 10 -12 23 1 19 15 30 46 36 3 1 11 -8 18 -19z m362 -14 c0 -8
5 -16 12 -18 8 -3 4 -12 -10 -26 -12 -12 -22 -17 -22 -12 0 6 -10 10 -22 10
-16 0 -19 3 -11 11 6 6 9 17 6 24 -4 11 9 19 40 24 4 0 7 -5 7 -13z m627 -57
c-8 -12 -15 -14 -32 -6 -27 13 -27 50 0 57 25 7 46 -27 32 -51z m-131 7 c7
-16 5 -25 -8 -38 -10 -10 -18 -13 -18 -8 0 6 -9 10 -21 10 -14 0 -18 4 -12 13
4 6 6 19 5 27 -4 24 42 21 54 -4z m-636 -36 c-21 -22 -57 -14 -56 13 1 28 36
39 56 18 14 -14 14 -17 0 -31z m500 -10 c5 -3 2 -13 -5 -23 -11 -15 -16 -16
-33 -6 -27 17 -26 57 2 61 12 2 23 -3 25 -12 2 -8 7 -17 11 -20z m-139 -48
c-6 -2 -11 -10 -11 -18 0 -12 -4 -12 -22 2 -24 18 -33 68 -11 60 7 -3 15 0 19
5 3 6 13 -2 21 -18 9 -18 11 -29 4 -31z m-131 -22 c5 0 2 -8 -7 -18 -13 -13
-23 -15 -38 -8 -22 10 -29 60 -8 52 7 -3 15 0 19 6 5 7 10 3 15 -10 5 -12 13
-22 19 -22z m476 -44 c7 -16 5 -25 -8 -38 -10 -10 -18 -13 -18 -8 0 6 -6 10
-13 10 -8 0 -14 11 -14 28 0 34 37 41 53 8z m-135 -54 c-6 -2 -11 -11 -11 -20
-1 -15 -2 -15 -14 1 -7 9 -17 17 -22 17 -5 0 -9 11 -9 25 0 16 5 23 12 21 7
-3 15 0 19 5 3 6 13 -2 21 -18 9 -18 11 -29 4 -31z m-140 -6 c14 -18 14 -21 0
-35 -23 -24 -56 -6 -56 30 0 22 4 27 20 26 11 -1 27 -11 36 -21z m219 -136 c5
0 2 -8 -7 -18 -25 -24 -61 -8 -55 24 5 28 34 36 44 12 4 -10 12 -18 18 -18z"/>
<path d="M1097 3354 c-193 -87 -435 -144 -612 -144 -57 0 -76 -3 -73 -12 3 -7
130 -391 282 -852 l278 -839 136 6 c145 7 258 28 388 73 94 32 253 99 266 112
10 10 -548 1703 -560 1701 -4 -1 -51 -21 -105 -45z"/>
<path d="M3912 2892 l-20 -60 76 -7 c310 -24 558 -121 1062 -415 348 -204 529
-287 737 -340 116 -30 330 -54 366 -41 16 6 57 87 57 112 0 3 -48 9 -107 13
-304 19 -548 112 -1013 385 -491 289 -756 393 -1036 408 l-101 6 -21 -61z"/>
<path d="M3826 2636 c-9 -32 -16 -59 -14 -61 2 -2 53 -8 113 -14 304 -30 535
-126 1080 -449 389 -230 729 -349 974 -340 l83 3 19 50 c10 28 19 55 19 60 0
6 -40 11 -95 12 -288 6 -542 101 -1035 388 -498 290 -741 386 -1015 402 l-110
6 -19 -57z"/>
<path d="M3755 2419 c-12 -33 -35 -102 -35 -104 0 -1 37 -6 83 -9 304 -27 542
-119 1007 -391 505 -296 772 -398 1049 -399 l114 -1 18 50 c20 58 23 79 9 70
-18 -11 -257 16 -359 40 -199 48 -401 141 -738 338 -431 252 -599 330 -838
388 -108 26 -302 38 -310 18z"/>
<path d="M3539 1774 c-10 -26 1 -65 98 -359 180 -548 176 -538 204 -539 24 -1
21 9 -128 458 -84 253 -155 462 -158 464 -2 3 -10 -8 -16 -24z"/>
<path d="M3515 1683 c3 -10 65 -193 136 -408 79 -238 138 -398 150 -409 15
-15 16 -22 7 -28 -9 -6 -5 -8 11 -6 14 2 25 10 27 21 2 12 -2 17 -11 13 -7 -2
-20 3 -28 12 -8 9 -74 198 -148 420 -73 221 -137 402 -142 402 -5 0 -6 -8 -2
-17z"/>
<path d="M3167 864 c7 -3 9 -12 6 -20 -5 -14 18 -20 30 -7 10 9 -13 33 -32 32
-9 0 -11 -3 -4 -5z"/>
</g>
</svg>
