<?xml version="1.0" standalone="no"?>
<!DOCTYPE svg PUBLIC "-//W3C//DTD SVG 20010904//EN"
 "http://www.w3.org/TR/2001/REC-SVG-20010904/DTD/svg10.dtd">
<svg version="1.0" xmlns="http://www.w3.org/2000/svg"
 width="400.000000pt" height="320.000000pt" viewBox="0 0 400.000000 320.000000"
 preserveAspectRatio="xMidYMid meet">
<metadata>
Created by potrace 1.15, written by Peter Selinger 2001-2017
</metadata>
<g transform="translate(0.000000,320.000000) scale(0.100000,-0.100000)"
fill="#000000" stroke="none">
<path d="M1672 2854 c-41 -21 -65 -66 -66 -122 l-1 -44 -86 -27 c-85 -27 -299
-124 -299 -136 0 -3 22 6 49 20 62 31 245 105 261 105 6 0 8 -4 5 -10 -10 -16
16 -11 80 15 33 14 65 25 70 25 9 0 106 -449 99 -459 -1 -1 -20 -5 -41 -8
-152 -20 -385 -126 -583 -264 -264 -186 -495 -299 -688 -338 -93 -19 -99 -17
-107 35 -16 111 -32 350 -24 365 6 12 29 19 71 24 198 23 396 126 683 356 118
95 201 145 310 189 114 45 121 49 108 49 -16 1 -155 -55 -235 -95 -37 -19
-115 -70 -173 -114 -109 -82 -122 -89 -109 -67 4 7 3 9 -2 4 -5 -5 -9 -12 -9
-15 0 -13 -16 -32 -26 -32 -6 0 -7 5 -3 12 4 7 3 8 -5 4 -6 -4 -9 -11 -6 -16
6 -10 -146 -111 -234 -155 -77 -38 -183 -75 -222 -78 -15 -1 -25 -4 -22 -7 9
-9 -112 -26 -124 -17 -18 13 -35 -28 -41 -98 -11 -138 32 -349 116 -570 28
-73 31 -94 36 -235 3 -85 6 -166 6 -179 0 -95 39 -239 96 -356 25 -52 33 -60
60 -63 18 -2 47 1 65 6 30 9 27 10 -26 8 l-60 -1 -37 110 c-20 61 -39 124 -42
140 -3 17 -11 50 -18 75 -7 25 -12 66 -10 91 l3 46 57 13 c141 30 363 131 355
160 -4 13 -3 13 5 1 13 -18 89 28 257 153 224 168 350 234 551 286 70 18 169
29 179 19 11 -11 86 -422 78 -428 -4 -4 -44 -18 -88 -31 -350 -99 -463 -157
-702 -360 -49 -41 -104 -88 -123 -103 -19 -16 -28 -25 -20 -21 29 14 116 80
195 147 150 129 319 222 494 272 77 22 95 25 102 14 6 -10 11 -11 17 -3 15 23
51 35 72 24 25 -13 26 -22 3 -19 -10 1 -27 1 -38 0 -18 -1 -19 -2 -2 -12 11
-7 17 -22 17 -47 -1 -51 -25 -208 -50 -322 -36 -163 -36 -166 -9 -173 13 -4
27 -7 31 -7 8 0 25 52 33 100 3 19 11 51 17 70 6 19 11 60 12 91 1 31 4 55 8
53 4 -3 10 12 13 33 4 21 11 51 16 67 5 16 9 46 9 66 0 25 5 40 15 44 20 7 27
-14 41 -114 8 -61 21 -95 34 -92 10 2 11 0 2 -11 -13 -15 -8 -52 14 -115 9
-27 18 -36 31 -34 16 2 17 1 2 -10 -13 -11 -15 -23 -9 -61 4 -26 7 -51 8 -54
1 -15 22 -14 22 1 0 9 8 16 19 16 11 0 27 3 35 6 21 8 11 -22 -17 -54 -25 -27
-41 -28 -68 -1 -11 11 -24 18 -27 14 -10 -10 40 -45 65 -45 27 0 73 57 73 92
0 20 -36 247 -55 348 -3 14 -8 43 -11 65 -4 22 -11 45 -16 52 -6 8 4 14 34 19
l43 9 -55 5 c-30 3 -60 2 -67 -3 -6 -4 -14 -3 -17 2 -12 19 35 33 88 27 140
-19 319 -82 459 -162 90 -52 127 -79 233 -170 90 -78 165 -126 281 -180 106
-50 219 -84 280 -84 41 0 44 2 62 42 41 91 95 336 105 482 4 44 9 82 11 85 10
9 4 -107 -10 -214 -8 -60 -14 -117 -14 -125 1 -19 25 89 34 155 10 70 11 78
18 95 9 23 13 180 5 180 -13 0 -9 38 6 53 18 18 83 223 108 342 21 100 31 330
16 383 -10 36 -28 47 -104 57 -210 29 -406 117 -569 255 -151 128 -388 262
-544 307 -94 27 -121 45 -121 79 0 29 -41 78 -78 93 -24 10 -34 8 -75 -14 -45
-26 -77 -58 -77 -79 0 -5 12 2 28 16 73 67 116 75 163 29 16 -16 29 -35 29
-41 0 -6 -15 5 -34 24 -36 39 -46 42 -79 24 -37 -19 -107 -80 -107 -92 0 -7 3
-6 8 2 7 10 12 8 25 -5 18 -21 14 -62 -22 -223 -12 -52 -24 -108 -27 -125 -11
-63 -27 -114 -34 -110 -4 3 -10 -6 -12 -20 -3 -15 -1 -25 6 -25 8 0 8 -2 0 -8
-6 -4 -16 -17 -23 -29 -11 -21 -19 -23 -87 -23 -41 0 -84 5 -94 10 -11 6 -24
29 -30 53 -6 23 -17 65 -24 92 -8 28 -22 90 -32 140 -10 49 -19 84 -22 77 -8
-26 -21 1 -32 71 -6 39 -16 80 -21 90 -11 20 -1 43 30 71 25 23 28 5 6 -34
-17 -30 -19 -50 -4 -50 5 0 17 16 25 36 19 46 11 104 -19 132 -31 29 -94 37
-135 16z m735 -147 c-3 -9 19 -18 78 -30 173 -36 399 -156 587 -313 157 -131
340 -218 535 -255 105 -20 133 -31 133 -51 0 -7 -4 -7 -12 0 -7 5 -52 17 -99
26 -161 30 -365 117 -476 203 -244 190 -376 273 -523 332 -64 25 -194 60 -237
63 -16 2 -16 11 -1 26 16 16 21 15 15 -1z m58 -62 c120 -27 165 -42 165 -57 0
-5 5 -6 10 -3 25 15 253 -127 395 -246 55 -46 117 -93 138 -104 24 -13 35 -25
32 -35 -11 -37 -54 -250 -60 -300 -4 -30 -15 -93 -25 -140 -10 -47 -21 -112
-24 -145 -3 -33 -14 -103 -25 -155 -11 -52 -31 -162 -46 -243 -14 -81 -43
-206 -64 -276 -35 -120 -36 -129 -20 -140 21 -13 25 -8 34 42 4 20 12 40 17
43 12 7 2 -44 -16 -90 l-11 -29 -66 54 c-36 30 -96 79 -132 109 -36 30 -107
81 -159 112 -51 32 -98 61 -104 65 -9 6 -5 39 13 123 13 63 26 124 28 135 14
83 98 432 140 578 19 67 37 137 40 156 6 36 88 334 100 363 5 13 -15 27 -102
69 -59 29 -110 55 -113 58 -3 3 -10 7 -16 8 -14 3 -155 41 -214 58 -74 21 -32
17 85 -10z m-623 -697 c25 -128 45 -234 44 -235 -1 -1 -31 -5 -66 -8 -100 -10
-144 -22 -261 -70 -195 -80 -277 -129 -459 -276 -144 -116 -354 -225 -525
-273 -33 -10 -69 -20 -79 -23 -18 -5 -19 0 -13 103 l6 108 -50 134 c-28 74
-49 136 -47 137 2 2 39 11 83 20 119 25 215 60 360 132 142 71 197 105 385
237 216 152 416 242 546 245 l31 1 45 -232z m109 112 c10 -49 12 -83 6 -87 -5
-3 -4 -9 3 -13 7 -5 14 -21 16 -37 1 -15 5 -41 8 -58 19 -92 19 -95 2 -95 -9
0 -16 -4 -16 -9 0 -5 8 -7 18 -4 12 3 19 -1 19 -11 0 -9 -6 -16 -14 -16 -7 0
-13 -4 -13 -10 0 -5 6 -7 14 -4 11 4 13 0 9 -15 -9 -36 -32 -22 -38 22 -3 30
-14 93 -25 147 -5 25 -12 62 -15 84 -3 21 -7 42 -10 46 -3 4 -7 23 -9 41 -3
19 -7 41 -11 50 -3 10 -2 20 4 24 6 3 11 1 11 -5 0 -6 4 -9 10 -5 5 3 7 12 3
20 -3 8 -1 15 3 15 5 0 16 -36 25 -80z"/>
<path d="M1140 1745 c-10 -12 -16 -13 -27 -4 -10 9 -20 9 -36 1 -12 -5 -30
-13 -40 -16 -10 -3 -16 -10 -13 -15 3 -5 -4 -11 -15 -14 -14 -4 -20 -11 -16
-20 3 -9 -4 -19 -19 -26 -28 -12 -31 -26 -8 -35 12 -5 14 -9 5 -20 -9 -10 -8
-16 4 -26 9 -7 13 -21 10 -31 -4 -13 -1 -19 8 -19 8 0 17 -9 20 -20 3 -11 10
-20 17 -20 6 0 9 4 6 8 -3 5 1 9 9 9 8 0 17 -9 21 -19 5 -18 7 -18 29 -4 13 9
26 12 30 7 6 -11 31 -9 42 4 4 4 2 5 -6 0 -10 -6 -12 -4 -7 4 4 6 15 9 24 7
10 -3 24 -1 32 4 12 8 12 11 -3 28 -24 27 -21 32 14 25 30 -6 32 -5 27 21 -4
18 0 30 11 36 14 9 14 12 -4 26 -20 15 -20 15 -1 30 16 11 17 17 8 26 -7 7
-12 22 -12 35 0 26 -16 29 -47 8 -19 -13 -21 -13 -19 2 1 23 -27 28 -44 8z"/>
<path d="M1635 1081 c-149 -59 -270 -133 -405 -247 -103 -87 -193 -145 -325
-212 -162 -80 -298 -113 -334 -80 -11 11 -12 10 -6 0 14 -26 56 -33 114 -21
31 6 61 14 66 18 6 4 33 16 60 25 114 41 316 160 423 250 155 130 288 210 447
272 33 13 53 23 45 23 -8 0 -46 -13 -85 -28z"/>
</g>
</svg>
